<svg xmlns="http://www.w3.org/2000/svg" viewBox="0 0 517 385"><defs><style>.cls-3{fill-rule:evenodd;fill:#fff}</style></defs><g id="Layer_2" data-name="Layer 2"><g id="Layer_1-2" data-name="Layer 1"><path fill="#dcddde" d="M1 302h514v84H1z"/><path fill="#231f20" fill-rule="evenodd" d="M449 323h18v48h8v-48h18v-7h-44zm-63 9c0-6-2-17-21-17-14 0-19 8-19 17s8 12 12 13l11 2c9 2 11 4 11 10 0 8-9 9-14 9-7 0-15-3-15-13h-7c0 5 1 10 6 14 2 2 6 6 16 6 9 0 22-4 22-17 0-9-6-13-13-15l-16-3c-3-1-6-3-6-7 0-9 8-10 12-10 7 0 14 3 14 11zm-119-16v35c0 12-8 15-15 15-6 0-13-3-13-15v-35h-8v37c0 10 6 20 21 20s22-10 22-21v-36zm-122 7h18c4 0 10 0 10 9 0 8-6 9-11 9h-17zm0 25h18c9 0 9 5 9 9l2 14h9v-1c-2-1-3-3-3-6v-10c-1-7-4-9-7-10 4-2 8-5 8-13 0-12-9-15-18-15h-26v55h8zM25 323h18v48h8v-48h18v-7H25z"/><path d="M141 184v5l-1 1v4c0 1 0 0 0 0v1l-1 1v2a1 1 0 000 1 4 4 0 01-1 0v1c0 1 0 0 0 0v1h-1v1a3 3 0 010 1h-1v1l-1 1v1l-1 1c0 1 0 0 0 0a2 2 0 01-1 1 2 2 0 00-1 1v1h-1a1 1 0 010 1h-1c-1 0 0 0 0 0l-1 1-1 1h-1a1 1 0 000 1h-1v1h-1l-1 1h-1c-1 0 0 0 0 0v1c0 1 0 0 0 0h-1c-1 0 0 0 0 0h-1v1h-1l-1 1h-1c-1 0 0 0 0 0v1h-1c-1 0 0 0 0 0h-1c-1 0 0 0 0 0v1h-2c-1 0 0 0 0 0l-1 1h-2a11 11 0 00-1 1h-2l-1 1h-2l-1 1h-2l-2 1h-2c-1 0 0 0 0 0a5 5 0 00-1 0l-1 1h-4a7 7 0 00-1 0l-3 1a4 4 0 01-1 0h-9a9 9 0 01-1 0h-2a9 9 0 01-1 0h-3v-1a4 4 0 00-1 0 14 14 0 01-2 0h-5v-1h-3l-1-1h-2v-1h-1c-1 0 0 0 0 0h-1v-1h-2v-1h-2v-1h-2v-1h-1c-1 0 0 0 0 0v-1h-2v-1h-1a1 1 0 010-1h-1l-1-1c-1-1 0 0 0 0l-1-1-1-1c0-1 0 0 0 0v-1h-1v-1a3 3 0 010-1 4 4 0 000-1v-4a7 7 0 010-1l1-1a4 4 0 010-1v-1h1v-2h1v-2h1v-1c0-1 0 0 0 0a1 1 0 011 0v-1h1a3 3 0 000-1l1-1c1-1 0 0 0 0a3 3 0 011 0v-1c0-1 0 0 0 0a1 1 0 001 0 3 3 0 010-1h1l1-1c1 0 0 0 0 0l1-1c0-1 0 0 0 0h1a2 2 0 001-1h1l1-1c1-1 0 0 0 0h2l1-1a13 13 0 012 0 14 14 0 011 0 13 13 0 012 0 7 7 0 011 0h1c1 0 0 0 0 0v1c0 1 0 0 0 0h2v1c0 1 0 0 0 0a3 3 0 011 0v1a18 18 0 011 1 1 1 0 011 0v1c0 1 0 0 0 0v1c0 1 0 0 0 0l1 1c0 1 0 0 0 0v3a4 4 0 010 1v1a2 2 0 01-1 0v1l-1 1c-1 1 0 0 0 0v1a1 1 0 00-1 0v1h-1v1a1 1 0 000 1 1 1 0 000 1l1 1 1 1c1 0 0 0 0 0h1a1 1 0 000 1h1a7 7 0 011 0h3a6 6 0 001 1l1-1 1 1c1 0 0 0 0 0a5 5 0 001 0 1 1 0 011 0 3 3 0 011 0h2a8 8 0 011-1h6c1 0 0 0 0 0a5 5 0 011 0 6 6 0 001-1h2a5 5 0 001 0 8 8 0 011-1h3a5 5 0 001 0 6 6 0 010-1h1a1 1 0 001 0h1l1-1h2c1 0 0 0 0 0l1-1h1v-1a5 5 0 001 0h1v-1h2v-1h1c1 0 0 0 0 0h1v-1h1a5 5 0 010-1h2v-1l1-1h1a3 3 0 000-1 2 2 0 011-1v-1h1v-1h1c1 0 0 0 0 0v-2a1 1 0 001 0 2 2 0 010-1v-1a7 7 0 000-2 9 9 0 000-1v-1a2 2 0 000-1v-1a6 6 0 00-1 0v-1l-1-1v-1c0-1 0 0 0 0h-1c-1 0 0 0 0 0v-1l-1-1v-1h-1a4 4 0 000-1h-1a3 3 0 000-1h-1l-1-1v-1a2 2 0 00-1 0v-1c0-1 0 0 0 0a2 2 0 00-1 0v-1h-1a1 1 0 010-1h-1a3 3 0 00-1-1 5 5 0 01-1-1h-1v-1c0-1 0 0 0 0h-1v-1c0-1 0 0 0 0h-1l-1-1c-1 0 0 0 0 0l-1-1h-1a1 1 0 010-1h-1v-1h-1a1 1 0 000-1h-1a2 2 0 01-1 0v-1h-1v-1h-2v-1h-1c-1 0 0 0 0 0v-1h-2c-1 0 0 0 0 0v-1h-1v-1h-1a3 3 0 000-1 4 4 0 00-1 0l-1-1h-1a5 5 0 000-1 2 2 0 01-1 0h-1v-1h-2v-1h-1a6 6 0 01-1 0v-1a3 3 0 00-1 0h-1c-1 0 0 0 0 0v-1c0-1 0 0 0 0a3 3 0 00-1 0h-1v-1h-1l-1-1h-1a1 1 0 000-1h-2v-1h-1c-1 0 0 0 0 0a6 6 0 01-1-1h-1v-1c0-1 0 0 0 0h-1v-1h-1c-1 0 0 0 0 0v-1c0-1 0 0 0 0h-1v-1h-1c-1 0 0 0 0 0v-1a1 1 0 00-1 0 3 3 0 010-1 2 2 0 00-1 0v-1l-1-1v-1h-1v-2c0-1 0 0 0 0h-1v-1a3 3 0 00-1-1v-2h-1v-2l-1-1v-5h-1v-7a3 3 0 010-1 1 1 0 000-1v-5a2 2 0 010-1 4 4 0 001 0 2 2 0 010-1v-3h1c1 0 0 0 0 0v-1a5 5 0 010-1v-1c0-1 0 0 0 0h1c1 0 0 0 0 0v-2l1-1v-2h1v-1a3 3 0 000-1h1a4 4 0 010-1v-1a1 1 0 001 0v-2h1v-1a2 2 0 000-1h1v-1a7 7 0 010-1h1v-2h1a3 3 0 000-1h1v-2l1-1c0-1 0 0 0 0l1-1v-1h1c1 0 0 0 0 0a2 2 0 000-1 5 5 0 000-1h1v-1h1v-1l1-1a2 2 0 000-1h1v-1c0-1 0 0 0 0h1c1 0 0 0 0 0v-1a1 1 0 001 0v-1a3 3 0 011 0v-1h1c1 0 0 0 0 0a1 1 0 010-1h1c1 0 0 0 0 0v-1h1a1 1 0 000-1h1c1 0 0 0 0 0l1-1c1-1 0 0 0 0l1-1h1v-1h2v-1h1v-1h2l1-1c0-1 0 0 0 0h1l1-1c0-1 0 0 0 0h2l1-1c0-1 0 0 0 0h4a2 2 0 001-1h6c1 0 0 0 0 0a3 3 0 001 0h1l1 1a10 10 0 011 0h1l1 1h1l1 1a2 2 0 011 0 7 7 0 000 1 4 4 0 011 0v1h1v1l1 1c1 0 0 0 0 0v1a1 1 0 010 1h1v2a5 5 0 000 1 28 28 0 001 2v5h-1v7h-1v1c0 1 0 0 0 0a4 4 0 010 1v1a5 5 0 01-1 0v2l-1 1v2a1 1 0 00-1 0v2c0 1 0 0 0 0h-1c-1 0 0 0 0 0v2h-1c-1 0 0 0 0 0v2h-1v1l-1 1-1 1v1h-1v1h-1a1 1 0 010 1h-1v1l-1 1a2 2 0 01-1 1 3 3 0 01-1 1h-1v1h-1c-1 0 0 0 0 0h-1v1h-1c-1 0 0 0 0 0h-1a9 9 0 01-1 0h-1a2 2 0 010-1h-1c-1 0 0 0 0 0a3 3 0 01-1 0 8 8 0 010-1 4 4 0 01-1 0 4 4 0 010-1 6 6 0 01-1-1v-1s1 0 0 0a12 12 0 010-1 1 1 0 010-1v-2l1-2v-1c0-1 0 0 0 0a1 1 0 001 0v-2h1a3 3 0 000-1v-1h1v-1c0-1 0 0 0 0v-1h1v-2h1a3 3 0 000-1v-1a4 4 0 000-1l1-1a10 10 0 000-1v-1a4 4 0 00-1-1v-1a2 2 0 00-1 0l-1-1h-1a5 5 0 00-1 1h-1a2 2 0 00-1 0v1h-1v1c0 1 0 0 0 0a3 3 0 01-1 0v1a1 1 0 00-1 0v1h-1v1h-1c-1 0 0 0 0 0v1h-1v1c0 1 0 0 0 0h-1c-1 0 0 0 0 0v1l-1 1c0 1 0 0 0 0a2 2 0 000 1h-1v1h-1v1l-1 1c0 1 0 0 0 0v1h-1v1h-1v2h-1v1a3 3 0 01-1 1v1a3 3 0 000 1 1 1 0 01-1 0v1a7 7 0 000 1h-1v2c0 1 0 0 0 0l-1 1v1a3 3 0 000 1v2l-1 1v2a8 8 0 000 1v1c0 1 0 0 0 0v1l1 1v3c0 1 0 0 0 0h1v2h1c1 0 0 0 0 0v1h1v1a2 2 0 011 1 3 3 0 011 1l1 1c1 1 0 0 0 0a11 11 0 001 1 2 2 0 011 0v1a1 1 0 011 0v1h1v1h1a2 2 0 000 1h1v1h2v1c0 1 0 0 0 0a2 2 0 011 0 7 7 0 000 1h1c1 0 0 0 0 0h1v1h1c1 0 0 0 0 0l1 1h1v1h2v1h2c1 0 0 0 0 0v1h1c1 0 0 0 0 0h1v1h1l2 1h1a4 4 0 000 1 3 3 0 011 0v1h1a2 2 0 001 0 2 2 0 010 1h1l1 1c0 1 0 0 0 0a4 4 0 011 0 3 3 0 000 1h1l1 1h1v1h1l1 1a1 1 0 011 0v1l1 1h1a10 10 0 001 1v1h1a1 1 0 000 1h1c1 0 0 0 0 0v1h1v1a3 3 0 001 0l1 1c1 0 0 0 0 0v1h1v1h1v1c0 1 0 0 0 0l1 1c1 0 0 0 0 0v1c0 1 0 0 0 0h1c1 0 0 0 0 0v1l1 1c0 1 0 0 0 0v1h1v2a2 2 0 001 0v1l1 1c1 1 0 0 0 0v1l1 1c1 1 0 0 0 0a2 2 0 000 1v1h1a3 3 0 010 1v1l1 2a7 7 0 010 1v1a1 1 0 010 1l1 1h-1a4 4 0 001 1v2l1 2zm197-64c0-2-6-3-6 0 0 2 5 3 6 0zm13 1c1 5-2 7-5 9-10 6-17 3-24-5-2-3-2-13 1-16a14 14 0 014-4c5-2 10-1 14 1 5 2 9 7 9 12l1 3zm-181 24h-1v1h-1a3 3 0 000 1l1 1a3 3 0 001 0h1c1-1 3-3-1-3zm0 18l-1-1h-1c-1 0 0 0 0 0h-1l-1-1h-1a13 13 0 01-6-7c-2-5-2-11 1-16l5-5a5 5 0 000-1 4 4 0 001 0v-1c0-1 0 0 0 0a2 2 0 000-1h-1v-1c-2 0-8 0-10 3a20 20 0 00-3 7l-1 25c0 5 5 27 14 23a5 5 0 001 0 5 5 0 010-1h1a3 3 0 001 0v-1h1c1 0 0 0 0 0v-1h1a3 3 0 010-1h1c3-6 6-15-1-20zm194 60v-13l8-48c1-7-5 2-6 3-5 4-8 3-13-5-2-2-5-4-6 0-2 5-7 11-13 6-2-2-6-9-10-5-7 6-13 19-26 9-2-1-3-4-5-1l-6 5c-4 4-15 10-20 8-3-2-5-5-8-2a9 9 0 01-5 3c-13 3-19-33-24-4-1 3-3 8-6 9-4 2-7-4-8-7 0-2-3-18-7-11s-2 15-5 22c-1 4-7 6-10 2-3-5-3-10-3-16 0-4-1-13-6-15-3 0 0 7 0 8 0 13-3 24-14 31h-1c-1 0 0 0 0 0a4 4 0 01-1 0v1a5 5 0 01-1 0h-1l-1 1a3 3 0 01-1 0c-10 3-17-11-20-19a132 132 0 01-5-21 108 108 0 010-28c1-9 6-21 16-23 18-4 25 13 26 26 1 7 5 7 10 11l4 4c2 5 4-3 5-4a19 19 0 013-5c10-9 14 10 18 8s4-7 8-9c12-10 13 19 23 23 4 2 5-10 6-12 3-12 10-29 23-34 7-2 18 1 23 7 3 5 4 10-1 13-8 5-9-2-15-3a8 8 0 00-5 1c-5 3-15 19-11 24 2 4 5 1 8 0 4-3 6-7 8-10s7-8 10-8c8 0 2 14 8 14l16-18c5-3 7-1 9 4a10 10 0 003 3c8 5 6-17 17-12 4 2 8 12 11 12l9-17c3-5 8-5 10 2 3 9 2 19 1 29-1 20-2 43 4 62 1 5 7 11 5 17-2 4-10 2-13 0-7-5-13-10-15-18zm113-98c1 4-2 11-6 14l-1 2-8 8a102 102 0 01-12 9c-7 4-17 7-22 0-1-2-5-5-7-3-2 4-6 6-10 8-4 3-11 3-16 0-10-8-10-30-2-40l8-9 2-3c6-5 16-13 24-8 9 5 5 15-3 17h-2c-7 2-13 5-18 11-2 3-6 10-2 14 6 5 11-4 13-8 2-5 8-16 15-10 4 3 2 6 3 10l4 5c10 3 14-11 18-17s9-10 16-8c4 2 5 4 6 8z" class="cls-3"/><path fill="#005baa" d="M0 0h517v293H0z"/><path d="M141 182v5l-1 1v4c0 1 0 0 0 0v1l-1 1v2c0 1 0 0 0 0a4 4 0 01-1 1v1c0 1 0 0 0 0v1h-1v1a3 3 0 010 1h-1v1c0 1 0 0 0 0l-1 1v1l-1 1c0 1 0 0 0 0a2 2 0 01-1 1 2 2 0 00-1 1v1h-1a1 1 0 010 1h-1c-1 0 0 0 0 0l-1 1-1 1h-1a1 1 0 000 1h-1v1h-1l-1 1h-1c-1 0 0 0 0 0v1c0 1 0 0 0 0h-1c-1 0 0 0 0 0h-1v1h-1l-1 1h-1c-1 0 0 0 0 0l-1 1c-1 0 0 0 0 0h-1c-1 0 0 0 0 0v1h-2c-1 0 0 0 0 0l-1 1h-2a11 11 0 00-1 1h-2l-1 1h-2l-1 1h-2l-2 1h-2c-1 0 0 0 0 0a5 5 0 00-1 0l-1 1h-4a7 7 0 00-1 0l-3 1a4 4 0 01-1 0 1 1 0 00-1 0h-8a9 9 0 01-1 0h-2a9 9 0 01-1 0h-5a14 14 0 01-1-1h-5v-1h-3l-1-1h-2v-1h-1c-1 0 0 0 0 0h-1v-1h-2v-1h-2v-1h-2v-1h-1c-1 0 0 0 0 0v-1h-2v-1h-1a1 1 0 010-1h-1l-1-1c-1-1 0 0 0 0l-1-1-1-1c0-1 0 0 0 0v-1h-1v-1a3 3 0 010-1 4 4 0 000-1v-4a7 7 0 010-1l1-1a4 4 0 010-1v-1h1v-2h1v-2h1v-1c0-1 0 0 0 0a1 1 0 011 0v-1h1a3 3 0 000-1l1-1c1-1 0 0 0 0a3 3 0 011 0v-1a1 1 0 001 0 3 3 0 010-1h1l1-1c1 0 0 0 0 0h1v-1h1a2 2 0 001-1h1l1-1c1-1 0 0 0 0h2l1-1a13 13 0 012 0 14 14 0 011 0 13 13 0 012 0 7 7 0 011 0h1c1 0 0 0 0 0v1c0 1 0 0 0 0h2v1c0 1 0 0 0 0a3 3 0 011 0v1a18 18 0 011 1 1 1 0 011 0v1c0 1 0 0 0 0v1c0 1 0 0 0 0l1 1c0 1 0 0 0 0v3a4 4 0 010 1v1a2 2 0 01-1 0v1l-1 1c-1 1 0 0 0 0v1a1 1 0 00-1 0v1h-1v1a1 1 0 000 1 1 1 0 000 1l1 1 1 1c1 0 0 0 0 0h1a1 1 0 000 1h1a7 7 0 011 0h3a6 6 0 001 1l1-1 1 1c1 0 0 0 0 0a5 5 0 001 0 1 1 0 011 0 3 3 0 011 0h2a8 8 0 011-1h6c1 0 0 0 0 0a5 5 0 011 0 6 6 0 001-1h2a5 5 0 001 0 8 8 0 011-1h3a5 5 0 001 0 6 6 0 010-1h1a1 1 0 001 0h1l1-1h2c1 0 0 0 0 0l1-1h1v-1a5 5 0 001 0h1v-1h2v-1h1c1 0 0 0 0 0h1v-1h1a5 5 0 010-1h2v-1h1v-1h1a3 3 0 000-1 3 3 0 011-1v-1c0-1 0 0 0 0h1v-1h1c1 0 0 0 0 0v-1h1a1 1 0 000-1v-2a7 7 0 000-2 9 9 0 000-1v-1a2 2 0 000-1v-1a6 6 0 00-1 0v-2a3 3 0 01-1 0v-1c0-1 0 0 0 0h-1c-1 0 0 0 0 0v-1l-1-1v-1h-1a4 4 0 000-1h-1a3 3 0 000-1h-1c-1 0 0 0 0 0l-1-1v-1a2 2 0 00-1 0v-1c0-1 0 0 0 0a2 2 0 00-1 0v-1h-1a1 1 0 010-1h-1a3 3 0 00-1-1 5 5 0 01-1-1h-1v-1c0-1 0 0 0 0h-1v-1h-1l-1-1c-1 0 0 0 0 0l-1-1h-1a1 1 0 010-1h-1v-1h-1l-1-1c-1-1 0 0 0 0h-1a3 3 0 000-1h-1v-1h-2v-1h-1c-1 0 0 0 0 0v-1h-2c-1 0 0 0 0 0v-1h-1l-1-1c-1-1 0 0 0 0a4 4 0 00-1 0 3 3 0 010-1h-2v-1a5 5 0 00-1 0l-1-1c0-1 0 0 0 0h-1l-1-1h-1a6 6 0 01-1-1 3 3 0 00-1 0 3 3 0 010-1 1 1 0 00-1 0h-1c-1 0 0 0 0 0v-1h-2c-1 0 0 0 0 0v-1c0-1 0 0 0 0h-2v-1a1 1 0 00-1 0h-1l-1-1v-1h-2v-1h-1v-1a1 1 0 00-1 0 3 3 0 000-1h-1a5 5 0 010-1h-1v-1h-1a1 1 0 000-1h-1v-1l-1-1c-1-1 0 0 0 0v-1h-1v-1a1 1 0 01-1 0v-2a4 4 0 01-1-1v-2h-1v-1a3 3 0 010-1l-1-1v-1c0-1 0 0 0 0v-1l-1-2v-1a2 2 0 010-1v-7h-1a3 3 0 011-1v-6a4 4 0 000-1v-2h1v-3a5 5 0 011 0v-2l1-1v-1a1 1 0 001-1 6 6 0 010-1l1-1v-2a5 5 0 011 0v-1a1 1 0 000-1h1c1 0 0 0 0 0v-2h1v-2h1a7 7 0 010-1v-1h1c1 0 0 0 0 0v-1l1-1v-1h1v-1c0-1 0 0 0 0l1-1c1 0 0 0 0 0a3 3 0 000-1 1 1 0 000-1 2 2 0 011 0v-1l1-1a5 5 0 000-1h1c1 0 0 0 0 0v-1c0-1 0 0 0 0h1v-1l1-1a2 2 0 000-1h1v-1c0-1 0 0 0 0h1v-1h1v-1a3 3 0 011 0v-1h1c1 0 0 0 0 0a1 1 0 010-1h1v-1h1v-1h1a3 3 0 011-1l1-1h1v-1c0-1 0 0 0 0a3 3 0 011 0h1c1 0 0 0 0 0v-1a5 5 0 011 0l1-1c1 0 0 0 0 0h1c1 0 0 0 0 0h1v-1h2v-1h3v-1h1a4 4 0 001 0h2c1 0 0 0 0 0h1v-1h8v1h1a10 10 0 011 0h1c1 0 0 0 0 0a1 1 0 000 1h2v1c0 1 0 0 0 0a2 2 0 001 0l1 1a4 4 0 011 1l1 1v1a3 3 0 011 1v1l1 1v1a5 5 0 000 1 28 28 0 000 2v4h1l-1 1v6l-1 1v2h-1v3h-1v3h-1v2h-1v2h-1v1l-1 1c-1 0 0 0 0 0v1a1 1 0 01-1 0v1l-1 1v1a1 1 0 00-1 0l-1 1v1h-1v1a1 1 0 01-1 1 2 2 0 01-1 1l-1 1-1 1c0 1 0 0 0 0a3 3 0 01-1 0h-1v1h-2a9 9 0 01-1 0 3 3 0 01-1 0 2 2 0 01-1 0v-1c0-1 0 0 0 0a3 3 0 01-1 0 8 8 0 010-1 4 4 0 01-1 0 4 4 0 010-1 6 6 0 01-1-1v-1a12 12 0 010-1 6 6 0 000-1v-3h1v-1c0-1 0 0 0 0v-1c0-1 0 0 0 0a1 1 0 011 0v-1a3 3 0 010-1 3 3 0 001 0v-2h1v-1c0-1 0 0 0 0v-1h1v-2h1a3 3 0 000-1v-1a4 4 0 000-1l1-1a10 10 0 000-1v-1a4 4 0 00-1-1v-1a2 2 0 00-1 0l-1-1h-1a5 5 0 00-1 1h-1a2 2 0 00-1 0v1h-1v1c0 1 0 0 0 0a3 3 0 01-1 0v1a1 1 0 00-1 0v1h-1v1h-1c-1 0 0 0 0 0v1h-1v1c0 1 0 0 0 0h-1c-1 0 0 0 0 0v1l-1 1c0 1 0 0 0 0a2 2 0 000 1h-1v1h-1v1l-1 1c0 1 0 0 0 0v1h-1v1h-1v2h-1v1c0 1 0 0 0 0a3 3 0 01-1 1v1a3 3 0 000 1 1 1 0 01-1 0v1a7 7 0 000 1h-1v2c0 1 0 0 0 0l-1 1v1a3 3 0 000 1v2l-1 1v2a8 8 0 000 1v1c0 1 0 0 0 0v1l1 1v3c0 1 0 0 0 0h1v2h1c1 0 0 0 0 0v1h1v1a2 2 0 011 1 3 3 0 011 1l1 1c1 1 0 0 0 0a11 11 0 001 1 2 2 0 011 0v1c0 1 0 0 0 0a1 1 0 011 1h1v1h1v1h1v1c0 1 0 0 0 0h1l1 1c0 1 0 0 0 0a2 2 0 011 0 7 7 0 000 1h1c1 0 0 0 0 0l1 1c0 1 0 0 0 0h1c1 0 0 0 0 0l1 1h1v1h2v1h2c1 0 0 0 0 0v1h1c1 0 0 0 0 0h1v1h1l2 1h1a4 4 0 000 1 3 3 0 011 0v1h1a2 2 0 001 0 2 2 0 010 1h1l1 1c0 1 0 0 0 0a4 4 0 011 0 3 3 0 000 1h1v1h1l1 1h1l1 1a1 1 0 011 1l1 1h1v1a10 10 0 001 0v1c0 1 0 0 0 0h1a1 1 0 000 1h1c1 0 0 0 0 0v1c0 1 0 0 0 0h1v1h1v1h1c1 0 0 0 0 0v1h1v1h1v1c0 1 0 0 0 0l1 1c1 0 0 0 0 0a5 5 0 010 1h1v1l1 1c0 1 0 0 0 0v1h1v2a2 2 0 001 0v1l1 1c1 1 0 0 0 0v1l1 1c1 0 0 0 0 0a2 2 0 000 1v1h1a3 3 0 010 1v3h1a7 7 0 010 1v2l1 1-1 1a4 4 0 001 0v2l1 2zm197-64c0-3-6-3-6 0 0 2 5 3 6 0zm13 1c1 5-2 7-5 9-10 6-17 3-24-5-2-3-2-13 1-16a14 14 0 014-4c5-2 10-1 14 1 5 2 8 7 9 12l1 3zm-181 24h-1v1h-1a3 3 0 000 1l1 1a3 3 0 001 0h1c1-1 3-3-1-3zm0 18l-1-1h-1c-1 0 0 0 0 0h-1v-1h-2a13 13 0 01-6-7c-2-5-2-11 1-16l5-5a5 5 0 000-1 4 4 0 001 0v-1c0-1 0 0 0 0a2 2 0 000-1h-1v-1c-2 0-8 0-10 2a20 20 0 00-3 7l-1 25c0 6 5 28 14 24a5 5 0 001 0 5 5 0 010-1h1a3 3 0 001 0v-1h1c1 0 0 0 0 0v-1h1a3 3 0 010-1h1c3-6 6-15-1-20zm194 60v-13l8-48c1-7-5 2-6 3-5 3-8 3-13-5-2-2-5-4-6 0-2 5-7 11-13 6-2-2-6-9-10-6-7 7-13 20-26 10-2-1-3-4-5-1l-6 5c-4 4-15 10-20 8-3-2-5-5-8-2a9 9 0 01-5 3c-13 3-19-33-24-4-1 3-3 8-6 9-4 1-7-4-8-7 0-2-3-18-7-11s-2 15-5 22c-1 4-7 6-10 2-3-5-3-10-3-16 0-4-1-13-6-15-3 0 0 6 0 8 0 13-3 23-14 30l-1 1c-1 0 0 0 0 0a4 4 0 01-1 0 5 5 0 01-1 1h-2v1a3 3 0 01-1 0c-10 3-17-11-20-19a132 132 0 01-5-21 108 108 0 010-28c1-9 6-21 16-23 18-4 25 13 26 26 1 7 5 7 10 11l4 4c2 5 4-3 5-4a19 19 0 013-5c10-9 14 10 18 8s4-7 8-9c12-10 13 19 23 23 4 2 5-10 6-12 3-12 10-29 23-34 7-2 18 1 23 7 3 5 4 10-1 13-8 5-9-2-15-3a8 8 0 00-5 1c-5 3-15 19-11 24 2 4 5 1 8-1 4-2 6-6 8-9s7-8 10-8c8 0 2 14 8 14l16-18c5-3 7-1 9 4a10 10 0 003 3c8 5 6-17 17-12 4 2 8 12 11 12l9-17c3-5 8-5 10 2 2 9 2 19 1 29-1 20-2 43 4 62 1 5 7 11 5 17-2 4-10 2-13 0-7-5-13-10-15-18zm113-98c1 4-3 11-6 14l-1 2-8 8a102 102 0 01-12 9c-7 4-17 7-22 0-1-2-5-5-7-3-2 4-6 6-10 8-4 3-11 3-16 0-10-8-10-30-2-40 2-3 4-7 8-9l2-3c6-5 16-13 24-8 9 5 5 15-3 17h-2c-7 2-13 5-18 11-2 3-6 10-2 14 6 5 11-4 13-8 2-5 8-16 15-10 4 3 2 6 3 10l4 5c10 3 14-11 18-18 4-5 9-9 16-7 4 2 5 4 6 8z" class="cls-3"/></g></g></svg>